<?xml version="1.0" encoding="UTF-8"?>
<!DOCTYPE svg PUBLIC "-//W3C//DTD SVG 1.1//EN" "http://www.w3.org/Graphics/SVG/1.1/DTD/svg11.dtd">
<!-- Creator: CorelDRAW X7 -->
<svg xmlns="http://www.w3.org/2000/svg" xml:space="preserve" width="8.26772in" height="11.6929in" version="1.1" style="shape-rendering:geometricPrecision; text-rendering:geometricPrecision; image-rendering:optimizeQuality; fill-rule:evenodd; clip-rule:evenodd"
viewBox="0 0 8268 11693"
 xmlns:xlink="http://www.w3.org/1999/xlink">
 <defs>
  <style type="text/css">
   <![CDATA[
    .fil0 {fill:#621D0B}
    .fil9 {fill:#D55A26}
    .fil7 {fill:#EA6D42}
    .fil6 {fill:#F6A03B}
    .fil5 {fill:#F7D081}
    .fil8 {fill:#FF8E47}
    .fil4 {fill:#FFB13F}
    .fil2 {fill:#FFBC41}
    .fil3 {fill:#FFCA3F}
    .fil1 {fill:#FFD541}
   ]]>
  </style>
 </defs>
 <g id="Layer_x0020_1">
  <metadata id="CorelCorpID_0Corel-Layer"/>
  <g id="_1915001439248">
   <g>
    <path class="fil0" d="M4779 5770l-49 85 -149 99 -228 32 -165 81 -132 -39 -376 16c341,-101 482,-65 482,-65l617 -209z"/>
    <path class="fil0" d="M3433 6129l-77 22 -68 -28 -115 -13c0,0 -102,4 -117,-4 -15,-7 -152,-56 -152,-56l-153 -19 -101 -48 -136 -40 -91 -75 381 141 596 113 33 7z"/>
    <g>
     <path class="fil1" d="M4476 5106l182 111 139 75 212 76 228 129 206 116 86 127 -271 205c0,0 -651,-389 -656,-412 -6,-24 -218,-271 -218,-271l92 -156z"/>
     <path class="fil1" d="M4368 5212l-150 24 -120 61 -132 45 -158 12 -196 -17 -160 -45 -154 -20c0,0 -318,86 -337,86 -19,0 480,222 480,222 0,0 474,28 509,23 35,-4 241,-75 241,-75l177 -316z"/>
    </g>
    <path class="fil2" d="M5282 5603c0,0 -597,-346 -702,-315 -104,30 -104,-182 -104,-182l-223 151 -273 151 -311 44 -274 -164 -343 -45 -670 -17 756 634 377 573 395 242 1372 -1072z"/>
    <g>
     <polygon class="fil3" points="6291,4405 6009,5085 5416,5185 5147,4987 5187,4976 5486,4899 5726,4714 5839,4590 5852,4480 5933,4346 6157,4346 "/>
     <path class="fil3" d="M5093 4848l-248 251 -230 229 -96 96 -273 155 -397 194c0,0 -450,240 -491,251 -40,11 -465,251 -465,251l2771 24 -571 -1451z"/>
    </g>
    <path class="fil4" d="M6801 4346l0 2792c-9,0 -18,-1 -29,-1 -163,-7 -604,-25 -1101,-47 0,0 0,0 0,0 -453,-19 -953,-43 -1333,-63 -362,-20 -615,-38 -615,-48 0,-1 0,-3 0,-6 -3,-12 -11,-41 -24,-81 -6,-19 -13,-42 -20,-66 -21,-65 -47,-145 -75,-227 0,-3 -1,-6 -2,-8l0 0c-8,-24 -16,-48 -24,-71l0 0c-4,-13 -8,-25 -12,-37 -1,-2 -1,-4 -2,-6 0,-1 -1,-2 -1,-3 -1,-3 -2,-6 -3,-9 -1,-2 -1,-4 -2,-6 -11,-33 -22,-65 -32,-96l0 0c-10,-29 -19,-57 -28,-83 -2,-4 -3,-9 -5,-13 -8,-26 -16,-50 -23,-71 -12,-33 -20,-58 -25,-72 -2,-7 -4,-11 -4,-11l28 -20 17 -13 14 -10 0 0 48 -35 3 -3 15 -10 152 -112 166 -123 80 -58 493 -136 19 -7 132 -46 61 -22 183 -85 -141 37 137 -96 60 -42 69 -48 185 -137 -127 -23 0 -138 57 -135 4 5 0 0 91 120 46 61 282 -14 324 -296 281 -381 681 0z"/>
    <path class="fil5" d="M3344 5731l-6 -1 -499 -112 -31 -7 -565 -320 -756 -936c0,0 -3,-3 -8,-9l286 0c143,162 350,397 350,397l219 173 346 307 14 11 182 149 150 136 118 92 200 120z"/>
    <path class="fil6" d="M4606 6352l-19 0 -143 2 -4 0 -39 0 -6 0 -19 0 -19 0 -33 1 0 0 -4 0 -52 0 -243 3 -338 3 -18 0 -143 2 0 0 -57 0 -13 1 -11 0 -2 0 -11 0 -338 3 -68 1 -51 0 -1 0 -21 1 -192 2 -2 0 -50 0 -11 0 0 0 -8 0 -7 0 -34 1 -87 1 -11 0 -2 0 -11 0 -1 0 -8 0 -3 0 0 0 -65 1 -4 0 -11 0 -7 0 -206 2 -14 0 -41 1 0 0 -10 0 -186 1 -14 1 -19 0c0,0 0,0 0,0l-4 0 0 0 -102 1 -51 0 -163 2 -14 0 -97 1 -51 1 0 -2038 179 0c96,93 185,174 185,174l-47 54 183 120 154 194 83 7 -11 71 56 17 109 201 54 43 65 52 137 8 53 73 -73 64 37 11 0 0 219 68 146 16 353 211 37 22c0,0 121,57 264,125 22,11 45,22 68,33 59,28 119,56 174,83 3,1 5,2 8,4 26,12 50,23 73,34 22,11 42,21 60,29l0 0c1,0 2,1 2,1 8,4 16,8 23,11 15,7 27,13 35,17 6,3 10,5 12,6 11,6 46,24 92,47 5,3 10,5 15,8 1,1 2,1 3,2 24,12 51,26 78,40 10,5 21,10 32,16 11,6 23,12 35,18 16,8 32,16 48,25 9,4 19,9 28,14 1,1 3,2 5,2l0 0c2,1 3,2 5,3 6,3 12,6 18,9 7,4 13,7 19,10 52,27 94,48 113,58 7,3 10,5 10,5z"/>
    <path class="fil7" d="M6801 4661l0 2284 -29 -1 -465 -18 -204 -7 -846 -33 -8 0 -18 -1 -7 0 -402 -15 -437 -17 -95 -4 -132 -5 -198 -7 -111 -4 -170 -7 -825 -31 -15 -1 -420 -16 -34 -1 -108 -4 -439 -17 -371 -14 0 -1209 97 33 50 16 25 9 186 62 341 120 257 95 381 141 8 1 4 1c0,0 0,0 0,0l25 5 70 13 11 2 16 3 38 8 227 43 10 2 15 3 61 11 3 1 6 1 102 19 30 6 3 1c4,-2 8,-3 12,-5 8,-3 17,-6 25,-9 35,-13 69,-26 102,-37 4,-1 8,-2 12,-4 5,-1 10,-3 14,-5 29,-9 56,-18 82,-25 1,0 1,-1 2,-1 1,0 2,0 3,-1 1,0 2,0 4,-1 7,-2 15,-4 22,-6 7,-2 14,-4 21,-6 4,-1 8,-2 12,-3 2,-1 4,-1 6,-2 1,0 3,0 4,-1l0 0c4,-1 8,-2 12,-3 4,-1 8,-2 11,-3 6,-1 11,-2 17,-4 6,-1 13,-3 19,-4 2,-1 4,-1 5,-1 5,-2 10,-3 15,-4 2,0 4,-1 7,-1 8,-2 16,-4 25,-5 1,-1 3,-1 4,-1 3,-1 6,-1 9,-2 3,0 6,-1 9,-2 2,0 3,0 5,0 2,-1 4,-1 6,-2 2,0 4,0 6,-1 1,0 3,0 4,0 2,-1 3,-1 5,-1 1,0 3,-1 4,-1 8,-1 16,-2 23,-3 1,-1 3,-1 4,-1 12,-2 23,-3 34,-4 1,-1 2,-1 4,-1 1,0 3,0 4,0 2,-1 4,-1 5,-1 5,0 9,-1 13,-1 1,0 2,0 3,-1 2,0 3,0 5,0 2,0 4,0 6,0 2,-1 4,-1 5,-1 4,0 7,0 10,0 2,-1 5,-1 8,-1 1,0 3,0 5,0 3,0 6,-1 8,-1 15,0 28,0 40,0 3,0 6,0 8,0 1,0 2,0 2,0 1,0 2,0 2,0 1,0 2,0 2,0 2,0 4,0 6,0 1,0 2,1 4,1 0,0 1,0 1,0 1,0 2,0 3,0 0,0 1,0 1,0 1,0 2,0 3,0 1,0 2,0 3,0 3,1 5,1 6,1 2,0 4,0 6,0 0,0 0,0 0,0 1,1 2,1 2,1 1,0 2,0 3,0 0,0 1,0 2,0 1,1 2,1 2,1 2,0 3,0 4,0 1,0 1,0 2,1 3,0 5,0 5,1 1,0 1,0 1,0 0,0 0,0 0,0l304 -103 205 -69 22 -8 14 -4 15 -5 57 -20 93 -31 29 -11 0 0 87 -32 103 -62 119 -72 69 -41 63 -39 116 -69 64 -77 3 -1 0 0 16 -3 56 -13 142 -30 1062 -628z"/>
    <g>
     <polygon class="fil8" points="5597,5319 5547,5429 5358,5557 5091,5634 5458,5413 5522,5336 "/>
     <path class="fil8" d="M4779 5770l-49 85 -149 99 -228 32 -165 81 -132 -39 -376 16c341,-101 482,-65 482,-65l617 -209z"/>
     <path class="fil8" d="M3433 6129l-77 22 -68 -28 -115 -13c0,0 -102,4 -117,-4 -15,-7 -152,-56 -152,-56l-153 -19 -101 -48 -136 -40 -91 -75 381 141 596 113 33 7z"/>
    </g>
    <path class="fil9" d="M6801 5727l0 1619 -5334 0 0 -1491c79,87 159,162 236,215 7,5 14,9 20,14 15,9 30,19 46,27 8,5 16,9 24,14 15,7 30,14 45,22 6,2 11,5 17,7 13,6 26,12 40,17 0,0 0,1 0,1 9,3 17,6 25,9 1,1 2,1 3,2 2,0 4,1 6,2 28,10 56,20 85,30 36,11 72,22 110,32 10,3 21,5 32,8 12,3 24,6 36,9 11,3 23,5 35,8 6,1 12,3 19,4 71,16 143,29 213,40 21,3 43,6 64,9 2,1 4,1 7,1 0,0 0,0 0,0 12,2 25,4 37,5 23,3 46,6 69,9 19,2 38,4 57,6 3,0 6,1 8,1 7,1 14,1 21,2 2,0 3,0 4,0 21,2 42,4 62,6 0,0 0,0 0,0 66,6 124,10 172,12 8,1 15,1 22,1l1 0c19,1 36,2 51,3 9,0 18,0 25,1 2,0 3,0 4,0 21,0 33,1 33,1 2,-2 4,-4 6,-6 56,-43 166,-70 290,-88 10,-1 20,-2 30,-4 13,-1 27,-3 40,-4 4,-1 7,-1 11,-1 2,-1 4,-1 6,-1 2,0 5,0 7,-1 6,0 12,-1 18,-1 46,-5 93,-8 137,-10 1,0 2,0 2,0 3,0 6,0 8,0 2,-1 4,-1 6,-1 27,-1 53,-2 79,-3 0,0 0,0 1,0 142,-4 251,0 251,0l71 20 42 13 0 0 23 6 46 14 9 2 5 2 33 9 2 1 31 9 0 0 23 6 49 15 14 4 3 1 0 0 109 32 13 3 145 43c7,-7 15,-13 23,-19 33,-24 71,-45 113,-62 4,-2 9,-4 14,-6 4,-2 8,-3 12,-5 14,-5 29,-11 45,-16 2,0 3,-1 5,-1 14,-5 28,-9 43,-13 2,0 4,-1 6,-1 7,-2 13,-4 20,-5 1,-1 1,-1 2,-1 16,-4 33,-7 50,-11 0,0 0,0 0,0l1 0c0,0 0,0 0,0 13,-3 27,-5 41,-8 14,-2 27,-5 41,-7 6,-1 13,-2 19,-2 28,-4 56,-8 84,-11 18,-2 37,-3 55,-5 169,-13 333,-10 440,-5l0 0c13,1 25,2 35,2 6,1 11,1 15,1 47,3 74,6 74,6 -16,-56 16,-113 75,-137l231 -94 280 -114 5 -2 242 -99 136 -55 88 -36z"/>
   </g>
   <g>
    <path class="fil0" d="M8822 5770l49 85 149 99 228 32 165 81 132 -39 376 16c-341,-101 -482,-65 -482,-65l-617 -209z"/>
    <path class="fil0" d="M10168 6129l77 22 68 -28 115 -13c0,0 102,4 117,-4 15,-7 152,-56 152,-56l153 -19 101 -48 136 -40 91 -75 -381 141 -596 113 -33 7z"/>
    <g>
     <path class="fil1" d="M9126 5106l-183 111 -139 75 -212 76 -228 129 -206 116 -86 127 271 205c0,0 651,-389 657,-412 5,-24 217,-271 217,-271l-91 -156z"/>
     <path class="fil1" d="M9233 5212l150 24 120 61 132 45 158 12 196 -17 161 -45 153 -20c0,0 318,86 337,86 19,0 -480,222 -480,222 0,0 -474,28 -509,23 -35,-4 -241,-75 -241,-75l-177 -316z"/>
    </g>
    <path class="fil2" d="M8319 5603c0,0 597,-346 702,-315 105,30 105,-182 105,-182l222 151 273 151 311 44 274 -164 343 -45 670 -17 -756 634 -377 573 -395 242 -1372 -1072z"/>
    <g>
     <polygon class="fil3" points="7310,4405 7593,5085 8185,5185 8454,4987 8414,4976 8115,4899 7875,4714 7762,4590 7749,4480 7668,4346 7444,4346 "/>
     <path class="fil3" d="M8508 4848l248 251 230 229 96 96 273 155 397 194c0,0 450,240 491,251 40,11 465,251 465,251l-2771 24 571 -1451z"/>
    </g>
    <path class="fil4" d="M6801 4346l0 2792c8,0 17,-1 28,-1 163,-7 604,-25 1101,-47 0,0 1,0 1,0 452,-19 952,-43 1332,-63 362,-20 615,-38 615,-48 0,-1 0,-3 0,-6 3,-12 11,-41 24,-81 6,-19 13,-42 20,-66 21,-65 47,-145 75,-227 1,-3 1,-6 2,-8l0 0c8,-24 16,-48 24,-71l0 0c4,-13 8,-25 12,-37 1,-2 1,-4 2,-6 0,-1 1,-2 1,-3 1,-3 2,-6 3,-9 1,-2 1,-4 2,-6 11,-33 22,-65 32,-96l0 0c10,-29 19,-57 28,-83 2,-4 3,-9 5,-13 8,-26 16,-50 23,-71 12,-33 20,-58 25,-72 2,-7 4,-11 4,-11l-28 -20 -17 -13 -14 -10 0 0 -48 -35 -3 -3 -15 -10 -152 -112 -165 -123 -81 -58 -493 -136 -19 -7 -132 -46 -61 -22 -183 -85 141 37 -137 -96 -60 -42 -69 -48 -185 -137 128 -23 0 -138 -58 -135 -4 5 0 0 -91 120 -46 61 -282 -14 -324 -296 -281 -381 -680 0z"/>
    <path class="fil5" d="M10257 5731l6 -1 499 -112 31 -7 565 -320 756 -936c0,0 3,-3 8,-9l-286 0c-143,162 -350,397 -350,397l-219 173 -346 307 -14 11 -182 149 -150 136 -118 92 -200 120z"/>
    <path class="fil6" d="M8995 6352l19 0 143 2 4 0 39 0 6 0 19 0 19 0 33 1 0 0 4 0 52 0 243 3 338 3 18 0 143 2 0 0 57 0 13 1 12 0 1 0 11 0 338 3 68 1 52 0 0 0 21 1 193 2 2 0 49 0 11 0 0 0 8 0 7 0 34 1 87 1 11 0 3 0 10 0 1 0 8 0 3 0 0 0 65 1 5 0 10 0 7 0 206 2 14 0 41 1 0 0 10 0 186 1 14 1 19 0c0,0 0,0 0,0l4 0 0 0 102 1 51 0 163 2 14 0 97 1 51 1 0 -2038 -179 0c-96,93 -185,174 -185,174l47 54 -183 120 -154 194 -83 7 11 71 -56 17 -109 201 -54 43 -65 52 -137 8 -53 73 73 64 -37 11 0 0 -219 68 -145 16 -354 211 -37 22c0,0 -121,57 -264,125 -22,11 -45,22 -68,33 -59,28 -119,56 -174,83 -3,1 -5,2 -8,4 -26,12 -50,23 -73,34 -22,11 -42,21 -60,29l0 0c-1,0 -1,1 -2,1 -8,4 -16,8 -23,11 -15,7 -27,13 -35,17 -6,3 -9,5 -12,6 -11,6 -46,24 -92,47 -5,3 -10,5 -15,8 -1,1 -2,1 -3,2 -24,12 -51,26 -78,40 -10,5 -21,10 -32,16 -11,6 -23,12 -35,18 -16,8 -32,16 -48,25 -9,4 -19,9 -28,14 -1,1 -3,2 -5,2l0 0c-2,1 -3,2 -5,3 -6,3 -12,6 -18,9 -7,4 -13,7 -19,10 -52,27 -94,48 -113,58 -6,3 -10,5 -10,5z"/>
    <path class="fil7" d="M6801 4661l0 2284 28 -1 465 -18 204 -7 846 -33 8 0 18 -1 7 0 402 -15 437 -17 96 -4 131 -5 198 -7 111 -4 170 -7 825 -31 15 -1 420 -16 34 -1 108 -4 439 -17 371 -14 0 -1209 -97 33 -50 16 -25 9 -186 62 -341 120 -257 95 -381 141 -8 1 -4 1c0,0 0,0 0,0l-25 5 -70 13 -11 2 -16 3 -38 8 -227 43 -10 2 -15 3 -61 11 -3 1 -6 1 -102 19 -30 6 -3 1c-4,-2 -8,-3 -12,-5 -8,-3 -17,-6 -25,-9 -35,-13 -69,-26 -101,-37 -5,-1 -9,-2 -13,-4 -5,-1 -10,-3 -14,-5 -29,-9 -56,-18 -82,-25 -1,0 -1,-1 -2,-1 -1,0 -2,0 -3,-1 -1,0 -2,0 -3,-1 -8,-2 -16,-4 -23,-6 -7,-2 -14,-4 -21,-6 -4,-1 -8,-2 -12,-3 -2,-1 -4,-1 -6,-2 -1,0 -3,0 -4,-1l0 0c-4,-1 -8,-2 -12,-3 -4,-1 -8,-2 -11,-3 -6,-1 -11,-2 -16,-4 -7,-1 -14,-3 -20,-4 -2,-1 -4,-1 -5,-1 -5,-2 -10,-3 -15,-4 -2,0 -4,-1 -7,-1 -8,-2 -16,-4 -24,-5 -2,-1 -4,-1 -5,-1 -3,-1 -6,-1 -9,-2 -3,0 -6,-1 -9,-2 -1,0 -3,0 -5,0 -2,-1 -4,-1 -6,-2 -2,0 -4,0 -6,-1 -1,0 -3,0 -4,0 -2,-1 -3,-1 -5,-1 -1,0 -3,-1 -4,-1 -8,-1 -16,-2 -23,-3 -1,-1 -3,-1 -4,-1 -12,-2 -23,-3 -34,-4 -1,-1 -2,-1 -4,-1 -1,0 -2,0 -4,0 -2,-1 -4,-1 -5,-1 -4,0 -9,-1 -12,-1 -2,0 -3,0 -4,-1 -2,0 -3,0 -5,0 -2,0 -4,0 -6,0 -2,-1 -4,-1 -5,-1 -3,0 -7,0 -10,0 -2,-1 -5,-1 -8,-1 -1,0 -3,0 -5,0 -3,0 -6,-1 -8,-1 -15,0 -28,0 -40,0 -3,0 -6,0 -8,0 -1,0 -2,0 -2,0 -1,0 -2,0 -2,0 -1,0 -2,0 -2,0 -2,0 -4,0 -6,0 -1,0 -2,1 -3,1 -1,0 -2,0 -2,0 -1,0 -2,0 -3,0 0,0 -1,0 -1,0 -1,0 -2,0 -3,0 -1,0 -2,0 -3,0 -3,1 -5,1 -6,1 -2,0 -4,0 -6,0 0,0 0,0 0,0 -1,1 -1,1 -2,1 -1,0 -2,0 -3,0 0,0 -1,0 -2,0 -1,1 -2,1 -2,1 -2,0 -3,0 -4,0 -1,0 -1,0 -2,1 -3,0 -5,0 -5,1 -1,0 -1,0 -1,0 0,0 0,0 0,0l-304 -103 -205 -69 -22 -8 -14 -4 -15 -5 -57 -20 -93 -31 -29 -11 0 0 -87 -32 -103 -62 -119 -72 -69 -41 -63 -39 -116 -69 -64 -77 -3 -1 0 0 -16 -3 -56 -13 -142 -30 -1061 -628z"/>
    <g>
     <polygon class="fil8" points="8004,5319 8054,5429 8244,5557 8510,5634 8143,5413 8079,5336 "/>
     <path class="fil8" d="M8822 5770l49 85 149 99 228 32 165 81 132 -39 376 16c-341,-101 -482,-65 -482,-65l-617 -209z"/>
     <path class="fil8" d="M10168 6129l77 22 68 -28 115 -13c0,0 102,4 117,-4 15,-7 152,-56 152,-56l153 -19 101 -48 136 -40 91 -75 -381 141 -596 113 -33 7z"/>
    </g>
    <path class="fil9" d="M6801 5727l0 1619 5333 0 0 -1491c-79,87 -158,162 -236,215 -7,5 -13,9 -20,14 -15,9 -30,19 -46,27 -8,5 -16,9 -24,14 -15,7 -30,14 -45,22 -6,2 -11,5 -17,7 -13,6 -26,12 -40,17 0,0 0,1 0,1 -8,3 -17,6 -25,9 -1,1 -2,1 -3,2 -2,0 -4,1 -6,2 -28,10 -56,20 -85,30 -36,11 -72,22 -110,32 -10,3 -21,5 -32,8 -12,3 -24,6 -36,9 -11,3 -23,5 -35,8 -6,1 -12,3 -19,4 -71,16 -143,29 -213,40 -21,3 -43,6 -64,9 -2,1 -4,1 -7,1 0,0 0,0 0,0 -12,2 -25,4 -37,5 -23,3 -46,6 -69,9 -19,2 -38,4 -57,6 -3,0 -6,1 -8,1 -7,1 -14,1 -21,2 -1,0 -3,0 -4,0 -21,2 -42,4 -62,6 0,0 0,0 0,0 -66,6 -124,10 -172,12 -8,1 -15,1 -22,1l0 0c-20,1 -37,2 -52,3 -9,0 -18,0 -25,1 -2,0 -3,0 -4,0 -21,0 -33,1 -33,1 -2,-2 -4,-4 -6,-6 -56,-43 -166,-70 -290,-88 -10,-1 -20,-2 -30,-4 -13,-1 -27,-3 -40,-4 -4,-1 -7,-1 -11,-1 -2,-1 -3,-1 -5,-1 -3,0 -5,0 -8,-1 -6,0 -12,-1 -18,-1 -46,-5 -93,-8 -137,-10 -1,0 -2,0 -2,0 -3,0 -5,0 -8,0 -2,-1 -4,-1 -6,-1 -27,-1 -53,-2 -78,-3 -1,0 -1,0 -2,0 -142,-4 -251,0 -251,0l-71 20 -42 13 0 0 -23 6 -46 14 -9 2 -5 2 -33 9 -2 1 -31 9 0 0 -22 6 -50 15 -14 4 -3 1 0 0 -109 32 -13 3 -145 43c-7,-7 -15,-13 -23,-19 -33,-24 -71,-45 -113,-62 -4,-2 -9,-4 -13,-6 -5,-2 -9,-3 -13,-5 -14,-5 -29,-11 -45,-16 -1,0 -3,-1 -5,-1 -14,-5 -28,-9 -43,-13 -2,0 -4,-1 -6,-1 -6,-2 -13,-4 -20,-5 -1,-1 -1,-1 -2,-1 -16,-4 -33,-7 -49,-11 -1,0 -1,0 -1,0l0 0c0,0 0,0 0,0 -14,-3 -28,-5 -42,-8 -14,-2 -27,-5 -41,-7 -6,-1 -13,-2 -19,-2 -28,-4 -56,-8 -84,-11 -18,-2 -37,-3 -55,-5 -169,-13 -333,-10 -440,-5l0 0c-13,1 -25,2 -35,2 -5,1 -10,1 -15,1 -47,3 -74,6 -74,6 16,-56 -16,-113 -75,-137l-231 -94 -280 -114 -5 -2 -242 -99 -136 -55 -87 -36z"/>
   </g>
  </g>
 </g>
</svg>
