<?xml version="1.0" encoding="UTF-8"?>
<!DOCTYPE svg PUBLIC "-//W3C//DTD SVG 1.1//EN" "http://www.w3.org/Graphics/SVG/1.1/DTD/svg11.dtd">
<!-- Creator: CorelDRAW X7 -->
<svg xmlns="http://www.w3.org/2000/svg" xml:space="preserve" width="5.33333in" height="2.99999in" version="1.1" style="shape-rendering:geometricPrecision; text-rendering:geometricPrecision; image-rendering:optimizeQuality; fill-rule:evenodd; clip-rule:evenodd"
viewBox="0 0 5333 3000"
 xmlns:xlink="http://www.w3.org/1999/xlink">
 <defs>
  <style type="text/css">
   <![CDATA[
    .fil0 {fill:#273038}
    .fil1 {fill:#41505E}
    .fil4 {fill:#41505E}
    .fil5 {fill:#5B7084}
    .fil3 {fill:#748FA9}
    .fil2 {fill:#8EAFCF}
   ]]>
  </style>
 </defs>
 <g id="Layer_x0020_1">
  <metadata id="CorelCorpID_0Corel-Layer"/>
  <g id="_1914842049792">
   <polygon class="fil0" points="4075,2788 4075,2692 4042,2656 3959,2656 3926,2703 3926,2748 3892,2748 3892,2650 3702,2650 3702,2743 3671,2743 3671,2636 3631,2636 3631,2602 3551,2602 3551,2648 3433,2648 3433,2688 3402,2688 3402,2669 3392,2669 3392,2653 3307,2653 3307,2669 3279,2669 3279,2749 3176,2749 3176,2719 3126,2719 3126,2680 3095,2680 3095,2630 3042,2630 3042,2681 3032,2681 3001,2647 2985,2663 2876,2663 2876,2761 2837,2761 2837,2738 2823,2738 2823,2578 2798,2578 2798,2558 2776,2535 2713,2535 2686,2558 2686,2580 2657,2580 2657,2631 2520,2631 2520,2741 2434,2741 2434,2778 2381,2778 2381,2738 2188,2738 2188,2784 2137,2784 2137,2710 2079,2710 2079,2675 2042,2615 1964,2615 1919,2671 1919,2738 1863,2738 1863,2769 1815,2769 1815,2736 1733,2736 1733,2645 1599,2645 1599,2791 1499,2791 1499,2889 1408,2889 1408,3000 1499,3000 4075,3000 5422,3000 5422,2781 5346,2781 5346,2467 5158,2467 5158,2617 5092,2617 5092,2724 5040,2724 5040,2628 4883,2628 4883,2540 4752,2540 4752,2590 4629,2590 4629,2816 4587,2816 4587,2651 4413,2651 4413,2797 4335,2797 4335,2646 4295,2583 4252,2651 4252,2736 4237,2736 4237,2789 4151,2789 4151,2736 4089,2736 4089,2788 "/>
   <polygon class="fil1" points="708,2661 708,2582 753,2582 753,2564 782,2564 782,2522 804,2522 804,2462 866,2462 866,2503 903,2503 903,2486 942,2486 942,2365 1002,2365 1002,2343 1066,2343 1086,2241 1167,2294 1288,2336 1288,2609 1325,2609 1325,2294 1462,2294 1462,2479 1601,2479 1601,2537 1634,2537 1634,2490 1830,2490 1830,2625 1857,2625 1857,2339 1933,2226 1982,2226 1997,2257 2039,2257 2068,2314 2068,2675 2107,2675 2107,2635 2178,2635 2178,2600 2232,2600 2232,2428 2323,2428 2323,2477 2369,2477 2369,2606 2404,2606 2404,2657 2442,2657 2442,2405 2499,2405 2499,2209 2604,2205 2620,2242 2620,2399 2646,2399 2646,2637 2665,2637 2665,2500 2742,2477 2742,2393 2756,2393 2756,2308 2806,2289 2863,2306 2863,2394 2876,2394 2876,2460 2930,2460 2930,2425 2976,2406 2976,2385 2994,2376 3115,2392 3115,2832 3473,2832 3473,2867 3534,2867 3534,2906 3570,2906 3570,2998 708,2999 616,2999 616,2998 -33,3000 -33,2211 44,2211 86,2285 86,2314 99,2314 99,2306 155,2267 275,2267 275,2515 335,2515 335,2305 354,2273 533,2297 533,2396 616,2375 616,2661 "/>
   <polygon class="fil2" points="5478,3000 5478,2502 5505,2502 5505,2305 5610,2305 5610,2502 5644,2502 5644,2731 5723,2731 5723,2388 5759,2388 5759,2162 5784,2162 5784,1981 5885,1981 5885,2167 5931,2167 5931,2388 5975,2388 5975,2726 6045,2726 6045,2533 6171,2533 6171,2646 6210,2646 6210,2414 6248,2414 6248,2362 6358,2362 6358,2613 6564,2613 6564,2706 6616,2706 6616,2395 6872,2395 6872,2538 6976,2538 6976,2686 7003,2686 7003,2351 7212,2351 7212,2733 7294,2733 7294,2476 7611,2476 7611,2674 7673,2674 7673,2286 7780,2286 7780,2325 7814,2325 7814,2610 7882,2610 7882,2541 8027,2541 8027,2651 8494,2651 8494,3000 "/>
   <path class="fil3" d="M10412 3000l0 -590 -136 0 0 72 -42 0 0 -48 -61 -48 -66 50 0 64 -143 0 0 193 -77 0 -25 -775 -22 0 0 -28 -44 0 0 -288 -14 0 0 288 -47 0 0 28 -24 0 -9 782 -246 0 0 -99 -124 0 0 57 -115 0 0 -252 -82 0 0 -211 -151 0 0 386 -76 0 0 -197 -212 0c0,0 2,105 0,107 -1,2 -47,0 -47,0l0 37 -19 0 0 108 -82 0 0 -202 -98 0 0 -68 -90 0 0 250 -98 0 0 -279 -161 0 0 158 -37 0 0 -116 -40 -142 -40 138 0 180 -110 0 0 90 -85 0 0 -191 -44 -59 -56 0 0 -57 -68 0 0 414 -618 0 0 -393 -167 0 0 187 -74 0 0 452 3650 2z"/>
   <polygon class="fil0" points="12504,3000 12504,2502 12531,2502 12531,2305 12636,2305 12636,2502 12671,2502 12671,2731 12749,2731 12749,2388 12785,2388 12785,2162 12810,2162 12810,1981 12911,1981 12911,2167 12957,2167 12957,2388 13001,2388 13001,2726 13071,2726 13071,2533 13197,2533 13197,2646 13237,2646 13237,2414 13274,2414 13274,2362 13384,2362 13384,2613 13590,2613 13590,2706 13642,2706 13642,2395 13899,2395 13899,2538 14002,2538 14002,2686 14029,2686 14029,2351 14238,2351 14238,2733 14320,2733 14320,2476 14638,2476 14638,2674 14699,2674 14699,2286 14806,2286 14806,2325 14840,2325 14840,2610 14908,2610 14908,2541 15053,2541 15053,2651 15520,2651 15520,3000 "/>
   <polygon class="fil0" points="8069,2788 8069,2692 8036,2656 7953,2656 7920,2703 7920,2748 7886,2748 7886,2650 7697,2650 7697,2743 7665,2743 7665,2636 7625,2636 7625,2602 7545,2602 7545,2648 7428,2648 7428,2688 7396,2688 7396,2669 7386,2669 7386,2653 7301,2653 7301,2669 7273,2669 7273,2749 7170,2749 7170,2719 7121,2719 7121,2680 7089,2680 7089,2630 7036,2630 7036,2681 7026,2681 6995,2647 6979,2663 6870,2663 6870,2761 6832,2761 6832,2738 6817,2738 6817,2578 6792,2578 6792,2558 6770,2535 6707,2535 6681,2558 6681,2580 6651,2580 6651,2631 6514,2631 6514,2741 6428,2741 6428,2778 6375,2778 6375,2738 6183,2738 6183,2784 6132,2784 6132,2710 6073,2710 6073,2675 6036,2615 5958,2615 5914,2671 5914,2738 5857,2738 5857,2769 5809,2769 5809,2736 5728,2736 5728,2645 5593,2645 5593,2791 5494,2791 5494,2889 5402,2889 5402,3000 5494,3000 8069,3000 9416,3000 9416,2781 9340,2781 9340,2467 9152,2467 9152,2617 9086,2617 9086,2724 9035,2724 9035,2628 8877,2628 8877,2540 8746,2540 8746,2590 8623,2590 8623,2816 8581,2816 8581,2651 8407,2651 8407,2797 8329,2797 8329,2646 8289,2583 8246,2651 8246,2736 8231,2736 8231,2789 8145,2789 8145,2736 8083,2736 8083,2788 "/>
   <polygon class="fil4" points="12855,2661 12855,2582 12810,2582 12810,2564 12780,2564 12780,2522 12758,2522 12758,2462 12696,2462 12696,2503 12659,2503 12659,2486 12621,2486 12621,2365 12560,2365 12560,2343 12496,2343 12476,2241 12395,2294 12275,2336 12275,2609 12237,2609 12237,2294 12100,2294 12100,2479 11961,2479 11961,2537 11929,2537 11929,2490 11732,2490 11732,2625 11705,2625 11705,2339 11629,2226 11580,2226 11565,2257 11524,2257 11494,2314 11494,2675 11455,2675 11455,2635 11385,2635 11385,2600 11331,2600 11331,2428 11239,2428 11239,2477 11193,2477 11193,2606 11158,2606 11158,2657 11120,2657 11120,2405 11063,2405 11063,2209 10958,2205 10942,2242 10942,2399 10917,2399 10917,2637 10897,2637 10897,2500 10820,2477 10820,2393 10806,2393 10806,2308 10756,2289 10699,2306 10699,2394 10686,2394 10686,2460 10632,2460 10632,2425 10586,2406 10586,2385 10568,2376 10447,2392 10447,2832 10090,2832 10090,2867 10028,2867 10028,2906 9992,2906 9992,2998 12855,2999 12946,2999 12946,2998 13595,3000 13595,2211 13518,2211 13476,2285 13476,2314 13463,2314 13463,2306 13408,2267 13287,2267 13287,2515 13228,2515 13228,2305 13208,2273 13029,2297 13029,2396 12946,2375 12946,2661 "/>
   <polygon class="fil5" points="10523,2999 10523,2739 10473,2739 10473,2680 10401,2680 10401,2885 10362,2885 10362,2727 10276,2727 10276,2808 10198,2808 10198,2627 10120,2627 10120,2589 10012,2589 10012,2623 9937,2623 9937,2739 9876,2739 9876,2650 9847,2650 9834,2544 9761,2544 9737,2735 9683,2735 9683,2674 9564,2674 9564,2793 9529,2793 9529,2694 9409,2694 9409,2515 9254,2515 9254,2466 9068,2466 9068,2783 9039,2783 9039,2263 8881,2263 8881,2734 8852,2734 8852,2534 8791,2422 8735,2534 8735,2643 8713,2643 8713,2369 8662,2369 8662,2398 8625,2398 8625,2627 8571,2627 8571,2654 8462,2654 8462,2728 8403,2655 8386,2655 8340,2714 8340,2800 8261,2800 8261,2605 8162,2605 8162,2654 8028,2654 8028,2705 7994,2705 7994,2806 7921,2806 7921,3000 "/>
  </g>
 </g>
</svg>
