<?xml version="1.0" encoding="UTF-8"?>
<!DOCTYPE svg PUBLIC "-//W3C//DTD SVG 1.1//EN" "http://www.w3.org/Graphics/SVG/1.1/DTD/svg11.dtd">
<!-- Creator: CorelDRAW X7 -->
<svg xmlns="http://www.w3.org/2000/svg" xml:space="preserve" width="8.26772in" height="11.6929in" version="1.1" style="shape-rendering:geometricPrecision; text-rendering:geometricPrecision; image-rendering:optimizeQuality; fill-rule:evenodd; clip-rule:evenodd"
viewBox="0 0 8268 11693"
 xmlns:xlink="http://www.w3.org/1999/xlink">
 <defs>
  <style type="text/css">
   <![CDATA[
    .fil0 {fill:white}
   ]]>
  </style>
 </defs>
 <g id="Layer_x0020_1">
  <metadata id="CorelCorpID_0Corel-Layer"/>
  <g id="_1914844532384">
   <path class="fil0" d="M4176 4543l529 0 -150 -30 -96 -37 -73 0c-37,-19 -81,-16 -116,6l-94 61z"/>
   <path class="fil0" d="M5376 4663l270 0 -142 -30 -15 -18c-22,-27 -64,-24 -83,5l0 0 -30 43z"/>
   <path class="fil0" d="M4435 5250l409 -11 -229 -19c0,0 -22,-82 -96,-17 0,0 -60,-26 -84,47z"/>
   <path class="fil0" d="M4142 5077l274 4 -144 -35 -45 -27c-28,-17 -63,-19 -93,-4l-12 6 -36 0c-34,0 -67,15 -90,41l-24 27c56,-9 113,-13 170,-12z"/>
   <path class="fil0" d="M3265 4770l527 0 -204 -35c0,0 -83,-79 -143,-25l-180 60z"/>
   <path class="fil0" d="M2646 5132l739 0c0,0 -30,-131 -135,-56 0,0 -43,-77 -99,7 0,0 -199,-167 -328,-39l-177 88z"/>
  </g>
 </g>
</svg>
