<?xml version="1.0" encoding="UTF-8"?>
<!DOCTYPE svg PUBLIC "-//W3C//DTD SVG 1.1//EN" "http://www.w3.org/Graphics/SVG/1.1/DTD/svg11.dtd">
<!-- Creator: CorelDRAW X7 -->
<svg xmlns="http://www.w3.org/2000/svg" xml:space="preserve" width="3.41333in" height="3.41333in" version="1.1" style="shape-rendering:geometricPrecision; text-rendering:geometricPrecision; image-rendering:optimizeQuality; fill-rule:evenodd; clip-rule:evenodd"
viewBox="0 0 3413 3413"
 xmlns:xlink="http://www.w3.org/1999/xlink">
 <defs>
  <style type="text/css">
   <![CDATA[
    .fil2 {fill:#4D5D6C}
    .fil3 {fill:#4D5D6C}
    .fil1 {fill:#EB6F57}
    .fil4 {fill:#F6A03B}
    .fil0 {fill:#FDF4E0}
   ]]>
  </style>
 </defs>
 <g id="Layer_x0020_1">
  <metadata id="CorelCorpID_0Corel-Layer"/>
  <circle class="fil0" cx="1707" cy="1707" r="1633"/>
  <polygon class="fil1" points="2678,735 1947,1707 2678,2678 1707,1947 735,2678 1466,1707 735,735 1707,1466 "/>
  <path class="fil2" d="M1707 3413c942,0 1706,-764 1706,-1706 0,-943 -764,-1707 -1706,-1707 -943,0 -1707,764 -1707,1707 0,942 764,1706 1707,1706zm0 -155c856,0 1551,-695 1551,-1551 0,-857 -695,-1552 -1551,-1552 -857,0 -1552,695 -1552,1552 0,856 695,1551 1552,1551z"/>
  <polygon class="fil3" points="1707,333 2029,1384 1707,1707 2029,2029 3080,1707 1707,1707 1384,2029 1707,3080 1707,1707 1384,1384 333,1707 1707,1707 "/>
  <polygon class="fil4" points="1707,333 1384,1384 1707,1707 1384,2029 333,1707 1707,1707 2030,2029 1707,3080 1707,1707 2030,1384 3080,1707 1707,1707 "/>
 </g>
</svg>
