<?xml version="1.0" encoding="UTF-8"?>
<!DOCTYPE svg PUBLIC "-//W3C//DTD SVG 1.1//EN" "http://www.w3.org/Graphics/SVG/1.1/DTD/svg11.dtd">
<!-- Creator: CorelDRAW X7 -->
<svg xmlns="http://www.w3.org/2000/svg" xml:space="preserve" width="8.26772in" height="11.6929in" version="1.1" style="shape-rendering:geometricPrecision; text-rendering:geometricPrecision; image-rendering:optimizeQuality; fill-rule:evenodd; clip-rule:evenodd"
viewBox="0 0 8268 11693"
 xmlns:xlink="http://www.w3.org/1999/xlink">
 <defs>
  <style type="text/css">
   <![CDATA[
    .fil0 {fill:#0B0E10}
   ]]>
  </style>
 </defs>
 <g id="Layer_x0020_1">
  <metadata id="CorelCorpID_0Corel-Layer"/>
  <path class="fil0" d="M4766 6093c0,13 -22,20 -22,20l0 -45c4,1 8,0 11,-1 4,-1 6,-6 6,-10l0 -31 5 -2 -2 -10 0 0 0 -1 -3 -3 3 -15 6 11 0 12 -4 75zm-262 113l17 2 -20 36c0,0 -13,-2 -8,-18l11 -20zm-260 601l-9 23 -2 4 -5 12 -1 3 -10 25 0 0 -3 9 -7 17 -8 19 -10 24 -31 79 -11 28 -13 31c-4,-7 -11,-14 -19,-18l-7 3 0 -11c0,0 15,-38 35,-82 2,-6 5,-12 8,-18 1,-3 2,-5 3,-7 4,-10 9,-20 13,-30 14,-28 27,-54 38,-71 3,-6 7,-11 10,-15l1 -1 37 -59 4 1 -13 34zm-307 -925c-15,-9 -13,-36 -13,-36 22,9 13,36 13,36zm-26 -109l0 -2 8 6 -28 18 20 -22zm633 367c5,-7 15,-1 15,-1l-9 18 -6 -8c-2,-2 -2,-7 0,-9zm197 -172l0 -20c0,0 -29,-9 -42,3l0 19c0,0 -22,3 -24,9 -3,7 -3,34 -22,36 -21,2 -136,-53 -136,-53 0,0 0,-1 0,-1 2,-8 26,-95 17,-149 0,-3 -1,-6 -1,-8 -6,-25 -13,-47 -20,-64l0 0c-7,-22 -14,-36 -14,-36l0 -9 18 -27c0,0 7,-13 -7,-29 -13,-15 -24,-33 -24,-33 0,0 9,-31 31,-29 4,1 7,1 10,1 16,2 23,2 23,2 0,0 11,-9 7,-23l0 -11c0,0 0,-9 4,-13 5,-5 -2,-11 -2,-11 0,0 0,-5 6,-8 1,0 2,-1 3,-1 0,0 -2,-22 7,-20 9,2 29,-2 15,-16 -13,-13 -17,-46 -13,-69 0,0 0,-17 -2,-33 0,0 44,-13 29,-27 0,0 -5,9 -29,-20 0,0 -9,-37 -56,-51 -46,-13 -113,-6 -151,34 -38,40 -40,97 -18,153 23,56 16,67 16,67 0,0 -18,26 -20,35 0,0 -38,18 -44,34 0,0 -32,-5 -65,6l-2 -40c0,0 -9,-20 -71,-42 -62,-22 -54,-22 -60,-42l-80 0c0,0 -20,9 -27,35 0,0 -8,5 -20,14 -20,14 -48,38 -62,69 0,0 -1,1 -1,2 -17,37 -27,75 -22,122 1,15 3,30 7,47l-44 48 -7 7c0,0 -29,18 -15,69 13,51 113,29 113,29l16 -5c0,0 -13,24 -17,56 -5,39 1,90 54,129l-1 25 -2 33 -1 24c0,0 6,21 43,37 7,3 15,5 24,8 2,1 4,1 6,2 65,15 94,17 94,17 0,0 12,48 19,97 3,20 5,40 5,57 0,3 0,7 0,11 -1,15 -3,32 -5,49 -4,21 -8,43 -13,60 -6,21 -11,36 -15,42 -6,8 -11,46 -14,82 -1,4 -1,8 -2,12 -3,32 -4,59 -4,59 0,0 -5,5 -12,13 -15,19 -41,56 -58,113 -7,25 -13,54 -16,86 -1,16 -3,32 -6,48l-12 62 0 0 -7 38c0,0 -38,22 -29,38 0,0 -38,39 -27,90 0,0 0,1 0,1 0,0 -20,9 -7,20 5,3 12,8 20,12 18,10 38,19 38,19 0,0 13,-16 33,-7 4,2 9,4 13,7l-31 79 6 4 32 -78c17,11 37,24 60,24 34,0 94,0 94,0 0,0 60,-22 40,-49 -7,-9 -17,-16 -27,-20 -18,-8 -35,-9 -35,-9l-20 -18 -5 3c0,0 -7,-12 -17,-26 -9,-10 -19,-21 -30,-28l-2 -11 -2 -6 0 -1c2,-1 9,-10 16,-8 3,1 3,-11 -3,-24l16 -40 9 -23 5 -12 8 -19 22 -54 5 -14 11 -26 4 -12 12 -29 19 -48 8 -19 7 -16 1 -4 31 7 9 2c0,0 18,-3 24,-16 4,-7 7,-16 10,-24 1,-1 1,-1 1,-1 3,-7 7,-12 12,-13 6,-1 2,11 -3,27 -5,12 -10,28 -11,42 0,1 0,3 0,4 0,1 0,1 0,1 -1,23 0,54 8,95 0,2 0,4 1,7 3,14 7,30 11,46 0,1 0,1 1,2 2,7 4,14 5,21 2,10 4,20 6,29 3,19 5,36 5,49 0,0 0,0 0,0 1,18 1,28 1,28 0,0 -4,4 -7,10 -4,6 -7,13 -2,19 0,0 -3,6 -6,15 -6,18 -14,48 -5,70 0,0 -12,17 -4,29 1,1 2,3 4,4l80 0c0,0 0,0 0,0 2,-3 17,-24 38,-18 22,7 42,22 69,20 26,-2 62,-4 62,-4 0,0 49,-16 51,-34 2,-17 -9,-35 -29,-35 -20,0 -67,4 -102,-36 0,0 -18,-15 -25,-33l0 -31c0,0 0,-17 -34,-23 -3,-1 -6,-1 -10,-2 0,0 -4,-151 9,-184 0,0 2,-19 5,-42 1,-7 2,-14 3,-21 2,-8 3,-16 4,-24 3,-14 5,-26 8,-33 0,-1 0,-2 1,-2 0,-1 1,-2 1,-2l13 -9c0,0 2,-31 4,-52 1,-3 1,-6 2,-9 0,-3 1,-5 1,-6 1,-3 2,-16 4,-36l0 0c0,-1 0,-3 0,-5 0,-3 0,-6 0,-9 1,-9 1,-18 1,-28 3,-69 3,-168 -7,-224 0,0 0,0 0,-1 -2,-5 -15,-52 -7,-75 2,-5 5,-12 9,-19 14,-28 36,-67 36,-67l19 -40c0,-2 1,-4 1,-6 0,-5 0,-15 -7,-19 -9,-4 -16,-6 -16,-6l0 -5c0,-6 -3,-11 -7,-14 -8,-4 -19,-8 -28,-6 -2,1 -4,1 -5,2l3 -2c-1,1 -10,3 -3,2l-6 3 6 -31c0,0 123,4 145,11 22,6 58,2 58,2l2 53 4 5c0,0 -23,29 -21,48 0,5 2,9 6,12l11 0c0,0 0,-9 2,-19 2,-12 5,-26 11,-28l1 23 2 75 5 177 0 0 2 90 1 40 4 115 1 60 9 321 4 136 11 0 -3 -137 -9 -326 -1 -54 -4 -141 0 -16 -3 -99 -4 -176 -2 -70 -1 -29c0,0 49,-20 49,-53l0 -56c0,-15 0,-27 0,-27 0,0 -13,-33 -40,-31z"/>
 </g>
</svg>
