<?xml version="1.0" encoding="UTF-8"?>
<!DOCTYPE svg PUBLIC "-//W3C//DTD SVG 1.1//EN" "http://www.w3.org/Graphics/SVG/1.1/DTD/svg11.dtd">
<!-- Creator: CorelDRAW X7 -->
<svg xmlns="http://www.w3.org/2000/svg" xml:space="preserve" width="8.26772in" height="11.6929in" version="1.1" style="shape-rendering:geometricPrecision; text-rendering:geometricPrecision; image-rendering:optimizeQuality; fill-rule:evenodd; clip-rule:evenodd"
viewBox="0 0 8268 11693"
 xmlns:xlink="http://www.w3.org/1999/xlink">
 <defs>
  <style type="text/css">
   <![CDATA[
    .fil0 {fill:#273038}
   ]]>
  </style>
 </defs>
 <g id="Layer_x0020_1">
  <metadata id="CorelCorpID_0Corel-Layer"/>
  <path class="fil0" d="M1721 6436c-2,-4 -1,-10 0,-13 2,-5 4,-5 6,-11 2,-6 1,-10 4,-11 2,-2 5,-1 5,0 5,1 5,5 10,13 4,6 6,7 7,11 0,0 1,5 -2,9 -6,9 -25,10 -30,2zm10040 0c3,-4 1,-10 0,-13 -2,-5 -4,-5 -6,-11 -2,-6 -1,-10 -4,-11 -2,-2 -4,-1 -5,0 -4,1 -4,5 -10,13 -4,6 -6,7 -7,11 0,0 -1,5 2,9 6,9 25,10 30,2zm-4960 910l5214 0 0 -273 0 -92 0 -1604 -1 5c0,2 -3,3 -4,1 -6,-10 -18,-29 -29,-33 -3,-1 -6,1 -7,4 -2,5 -6,14 -11,19 -2,2 -3,4 -3,7 0,0 0,0 0,1 1,7 4,20 8,30 1,3 1,6 -1,9 -4,7 -13,24 -14,40 0,2 -4,3 -5,1l-8 -16c0,0 -9,-35 -30,-38 -4,0 -8,3 -8,7l0 28c0,3 0,5 -2,8 -3,6 -9,25 17,63 0,0 11,9 -9,11 -3,0 -5,4 -3,6 6,8 16,22 25,36 16,25 28,51 4,40 -19,-8 -36,-16 -48,-24 -9,-4 -15,-8 -20,-11 -3,-1 -6,1 -5,4l3 16 2 8c1,2 0,5 -2,7l-2 2c-2,3 -2,8 2,10l13 7c2,1 3,3 4,5 3,10 13,38 30,53 2,2 3,4 3,6 -1,11 -6,40 -32,10 -2,-2 -6,-1 -7,1l-3 5c-1,3 -6,4 -8,1 -9,-10 -28,-29 -35,-21 0,0 17,105 -5,77 -19,-24 -25,-42 -42,-46 -5,-1 -11,3 -10,9l2 43c1,8 6,15 13,18l4 1c7,3 12,10 13,19l0 0c1,11 7,21 16,27l25 13c7,4 10,11 10,18 0,0 0,1 0,2 0,11 5,21 15,28 16,11 35,28 8,33 -30,6 -71,-43 -90,-69 -2,-2 -5,-3 -8,-2 -3,1 -5,3 -5,6l-1 14c-1,8 2,14 7,20 0,0 1,0 1,1 26,27 96,105 30,94 -6,-1 -11,-2 -17,-4 -4,-1 -8,-2 -12,-3 -7,-2 -12,-4 -17,-6 -15,-8 -21,-16 -23,-21 -1,-3 -4,-3 -6,-1l-4 7c-2,3 -2,8 0,11l9 15c1,1 1,3 1,4l0 21c0,5 3,10 7,13 8,6 20,15 28,24 6,6 9,12 9,17 0,6 -4,12 -16,15l-4 0c-7,1 -12,6 -12,13 0,5 -1,10 -4,15 -4,7 -10,12 -21,14 -6,0 -14,0 -23,-1 0,0 -33,-42 -32,6 0,3 2,6 4,8l12 8 0 1 3 29c0,3 1,5 3,7 7,6 23,24 -4,44 -2,1 -3,3 -3,5l-9 29c0,2 -3,2 -3,0 -2,-8 -5,-20 -6,-19 -1,1 -8,13 -12,19 -2,3 -6,4 -8,2 -9,-6 -21,-19 -4,-33 0,0 1,-1 1,-1 5,-3 9,-6 12,-10 15,-14 17,-25 17,-25l2 -34c0,-3 -2,-5 -4,-6 -1,0 -2,0 -3,0 -7,1 -18,3 -21,5 -1,0 -6,6 -11,12 0,0 0,0 0,1 -8,8 -15,19 -15,19 0,0 -1,0 -2,0 -2,0 -6,-1 -9,-2 -2,-1 -3,-2 -4,-4 -3,-5 -1,-15 15,-34l2 -2 16 -18c2,-2 2,-6 0,-9 -2,-2 -4,-4 -5,-7 -2,-4 -3,-8 1,-11 1,-1 2,-1 3,-2l5 -13 8 -2c2,-1 4,-3 5,-5l4 -7 2 -6c2,-4 -1,-8 -5,-9l-5 0c-3,-1 -5,-3 -6,-6l-3 -14c-1,-4 -3,-7 -7,-8 -3,-1 -7,-1 -9,2 -2,1 -3,3 -3,6l-1 8 -10 11 -5 14c-1,3 -5,2 -6,-1l-3 -13c0,-3 1,-7 4,-9l1 -1c2,-1 2,-5 0,-7l-2 -3c-1,-1 -2,-3 -2,-5 0,-14 -2,-69 -32,-33l-2 6c-1,3 -4,5 -7,5 -4,0 -7,-3 -7,-6 0,-1 0,-2 0,-2l0 -1c2,-5 -1,-11 -5,-13l0 0c-3,-1 -5,-4 -4,-7l1 -8 3 -18c0,-3 -1,-6 -3,-7l-8 -7 -1 -4c-1,-3 -4,-3 -6,-1l-3 9c-1,1 -1,2 -1,3l2 30c0,1 0,3 -1,5l-11 14c-1,2 -1,3 -1,4l-2 17 -13 -9c0,0 6,-30 -2,-29 -1,1 -2,1 -3,1 -13,2 -23,14 -23,27l0 8 2 28c0,1 0,2 0,3 0,0 -1,1 -1,1l-2 14c0,5 -5,6 -8,3l-15 -13c-3,-3 -4,-6 -5,-10l-1 -8 -1 -10c0,-4 -5,-5 -8,-3l-5 7c-4,4 -7,10 -7,16l0 21 7 32 1 5 2 19 13 26 9 12c4,5 5,10 4,15l-2 7c-1,3 -5,4 -8,2l-20 -19 -16 -9 -9 -6c-2,-1 -4,0 -5,2l0 0c-4,12 -4,25 2,36 1,1 1,2 2,3 2,4 4,7 6,10 4,6 7,11 7,11l3 4 18 25c1,2 1,3 2,5 1,5 0,10 -4,14l0 0c-5,6 -14,5 -19,0 -2,-3 -4,-5 -5,-6 -1,0 -1,-1 -1,-1l-15 0 -10 -8c-2,-2 -5,-1 -5,2l-1 16 0 28c-1,5 -6,7 -10,4l-13 -14 -7 -10 -9 -13c-2,-4 -7,-2 -7,2l-1 15 0 28c-1,3 0,6 2,8l27 32 25 17 0 0 2 16 3 16 22 16c4,3 5,8 3,11l0 1c-3,6 -11,8 -17,5 -11,-7 -26,-16 -26,-16l-13 -20 -8 -14 -6 -9c-1,-2 -4,-1 -5,1l-2 8 -3 16c0,3 0,6 2,9l4 5 7 9 0 0 6 9 3 3 17 39c3,6 -3,13 -9,11l-15 -4 -1 -1c-6,-1 -12,-4 -17,-8l-16 -14c-5,-4 -12,-1 -12,5l0 27c0,3 1,6 3,9l15 24 6 8c5,8 5,17 0,25l-10 13c-1,3 -4,5 -7,6l-6 2 -11 4c-3,1 -7,1 -10,0l-29 -12c-3,-1 -6,2 -4,5 8,12 21,50 21,54 0,0 0,0 0,0 0,3 -2,12 -4,21 -1,6 -3,13 -4,17 -1,3 -1,7 0,10l1 8 3 21 17 56c1,5 4,9 8,13l7 7 16 15c4,4 6,10 6,15l-1 4c-1,9 -10,14 -18,11l-38 -14 -43 -17 -17 -10 -13 -9c-3,-1 -6,-2 -8,-1l-2 0c-5,1 -8,6 -7,11 1,1 1,2 2,3l31 36 39 26c3,3 6,5 10,6l35 14c4,2 7,5 9,9l4 10c2,6 -2,12 -8,12l-29 0 -52 -19 -11 -9c-5,-3 -12,0 -12,6l0 3c-1,12 6,24 17,30 2,1 3,3 3,5 0,1 -1,3 -2,4l-18 19 -17 10c-2,1 -4,1 -6,2l-5 0 -25 2c-6,1 -10,3 -14,7 -27,-3 -53,-6 -78,-9 -133,-16 -237,-32 -303,-43 -1,0 -2,0 -3,0 -5,-1 -10,-2 -15,-3 -165,-27 -272,-50 -366,-62 -5,0 -9,-1 -13,-1 -76,-8 -146,-8 -233,6 -134,22 -200,57 -335,50 -6,0 -13,-1 -19,-1 -51,-4 -100,-13 -146,-25 -34,-9 -65,-19 -96,-29 -39,-14 -75,-28 -109,-42 -11,-5 -21,-9 -31,-13 -118,-49 -160,-81 -209,-100 -1,-1 -3,-2 -5,-3 -1,0 -1,0 -2,0 -20,-8 -42,-13 -72,-17 -11,-1 -21,-2 -31,-3 -52,-3 -84,6 -136,12 -1,0 -3,1 -4,1 -30,3 -65,5 -115,3 -20,-1 -40,-1 -60,-2 -5,-1 -9,-1 -13,-1 -69,-4 -136,-14 -200,-46 -115,-56 -110,-129 -171,-198 -1,0 -1,0 -1,-1 -13,-13 -28,-27 -47,-41 -2,-1 -4,-2 -6,-3 -1,-1 -1,-1 -2,-1 -7,-5 -13,-9 -20,-12 -4,-2 -8,-4 -12,-6 -3,-2 -6,-3 -10,-4 0,-1 -1,-1 -2,-1 -3,-1 -6,-2 -9,-3 -70,-24 -159,-19 -342,-17 -4,0 -9,0 -13,0 -53,1 -114,1 -184,1 -51,-1 -124,-2 -212,-5 -30,-1 -62,-2 -95,-3 20,-16 49,-39 55,-48 6,-10 18,-41 24,-58 2,-5 -1,-10 -7,-10l-32 0c-2,0 -3,0 -5,-2 -6,-5 -20,-18 -13,-22 6,-3 23,-15 33,-22 3,-2 1,-6 -2,-5l-46 3 -22 7 29 -23c11,-9 15,-23 10,-36 0,0 -11,-15 -11,-21 0,0 0,-1 0,-1 2,-3 8,-9 13,-13 2,-2 1,-5 -2,-5l-28 -4 -31 -6c-11,-2 -23,0 -32,6l-6 4c-6,3 -13,-2 -11,-9 5,-15 12,-34 16,-34l52 0c7,0 15,-3 21,-8l28 -26c4,-4 3,-10 -2,-12 -6,-3 -12,-4 -19,-4 -8,0 -16,2 -23,7 -10,5 -20,11 -26,14 -3,2 -6,3 -9,3l-21 1c-3,0 -5,-3 -3,-6 8,-11 25,-36 29,-41 4,-7 11,-35 11,-42 0,-4 -4,-15 -7,-24 -3,-6 0,-14 6,-18l10 -7c4,-3 6,-9 3,-14l0 -1c-5,-7 -14,-10 -22,-7 -3,1 -6,2 -8,3 -4,2 -9,2 -13,0 -7,-3 -16,-7 -18,-13 0,-3 -2,-7 -4,-11 -5,-7 -2,-17 6,-21l17 -10c6,-4 10,-10 9,-17l0 -13c-1,-6 -8,-8 -12,-4l-16 17 -12 10c-3,3 -9,1 -10,-3l0 -1c0,0 0,0 -1,0 -2,-7 -3,-15 -1,-22 1,-6 4,-12 8,-17 5,-6 10,-13 14,-18 3,-4 -1,-9 -5,-8l-12 3c-3,1 -6,2 -8,4l-18 12c-2,2 -4,1 -5,0 0,-1 0,-1 0,-2 -1,0 -1,-1 0,-1 1,-8 4,-21 7,-27 4,-8 35,-32 41,-35 4,-1 6,-12 7,-23l0 0c1,-6 1,-12 2,-16 0,-3 -2,-5 -4,-6 -1,0 -2,0 -4,0 -4,0 -8,2 -10,6l-8 13c0,0 -18,0 -18,-4 0,-2 2,-7 4,-12 2,-6 -2,-12 -8,-12l-7 0c0,0 -15,11 -17,6l-5 -10c-3,-6 -1,-14 6,-18l17 -9c3,-1 5,-3 6,-6 3,-5 8,-17 7,-24 -2,-9 -13,-17 -16,-19 -1,-1 -2,-1 -3,0l-10 14 -11 13c0,0 -15,9 -15,-2 0,-11 15,-22 17,-33 3,-11 9,-43 9,-48 0,-2 -3,-7 -5,-11 -2,-2 -5,-2 -6,0l-9 16 -3 5c-2,3 -7,3 -8,-1 -2,-11 -5,-27 -4,-31 1,-3 0,-12 -1,-21 -1,-5 -8,-6 -10,-1l-6 14 -3 4c-3,7 -12,9 -18,4 -3,-2 -6,-5 -6,-6l0 -44c0,-5 -1,-8 -3,-11 -2,-3 -6,-2 -6,1l-1 30c0,3 -1,5 -1,8l-5 17c-1,1 -3,2 -4,1 -3,-3 -9,-8 -10,-11 -1,-2 -3,-6 -4,-9 -1,-2 -4,-3 -6,0l-6 13c-4,7 -4,16 0,22 1,2 1,3 1,4 0,3 -2,6 -6,7 -5,1 -10,1 -13,1 -2,-1 -3,-2 -3,-3 0,-2 -2,-2 -4,-1 -4,2 -6,5 -7,9 -1,2 -1,4 -1,7 0,0 0,0 0,1l8 39c1,7 3,14 6,20l3 5 8 16c0,1 -1,3 -2,2l-11 -7c-2,-1 -3,-2 -5,-3 -4,-3 -8,-7 -12,-10l-4 -4c-1,-2 -4,-1 -4,1l-2 11c-1,7 0,13 4,19l14 24c4,7 4,15 0,22 -2,4 -6,6 -11,6 -3,0 -7,-2 -9,-5l-4 -4c-3,-4 -9,-2 -9,3 0,5 -5,10 -10,10 -1,0 -2,0 -3,-1l-8 -2c-6,-1 -13,2 -14,9l-2 8 4 6 17 22c0,2 1,3 2,5l14 40c2,4 4,7 6,10l5 6 -8 -7 -4 -3 0 0 -23 -20 -7 -5c-5,-4 -11,-1 -12,5l-4 27c0,5 -4,9 -9,11 -11,4 -31,10 -36,6 -3,-4 -19,-9 -31,-13 -7,-2 -8,-11 -2,-15l24 -16c2,-2 4,-3 6,-4l25 -12c8,-4 13,-12 13,-20l-1 -13c0,-6 -8,-10 -13,-7l-37 23c-7,5 -16,3 -20,-4 -1,-2 -1,-4 -1,-5 2,-3 17,-24 25,-36 4,-5 7,-11 8,-17l7 -36 3 -31c1,-6 0,-11 -3,-16 -1,-3 -2,-7 -2,-10 0,-8 4,-16 11,-20l0 0c6,-4 10,-11 9,-18l-1 -12c-1,-7 -9,-11 -15,-6 -6,5 -12,10 -15,10l-10 0c-3,0 -6,-1 -9,-2 -3,-1 -5,-3 -7,-6l-15 -19c-1,-1 -1,-2 -2,-3l-1 -2c-5,-8 -1,-20 8,-24l9 -6c5,-3 10,-8 11,-14l6 -29c1,-6 -4,-11 -10,-9l-22 7 -11 2c-14,2 -28,-5 -36,-17 -1,-3 -2,-6 -1,-7 4,-4 57,-39 55,-44 -1,0 -1,-1 -2,-2 -11,-11 -29,-10 -38,2l-5 6c-5,6 -12,12 -19,15 -1,1 -1,1 -2,1 -3,0 -5,-4 -3,-7l17 -24c7,-10 14,-19 23,-27l15 -14c10,-9 14,-23 10,-36 -1,-8 -3,-14 -3,-16 0,-3 -9,2 -15,5 -3,2 -6,5 -7,8l-8 13c-2,4 -7,3 -9,0l-5 -13 0 -19c0,-5 -6,-8 -10,-5l-7 7c-3,2 -7,4 -11,3 -6,-2 -16,-5 -18,-10 -1,-7 6,-21 9,-27 2,-3 3,-5 5,-6l22 -26c2,-3 4,-7 3,-10l0 -8c-1,-5 -7,-8 -12,-5l-11 10 -19 13c-6,4 -14,0 -15,-7 0,-2 0,-5 1,-6 1,-4 9,-19 15,-29 5,-7 7,-15 9,-24 2,-13 4,-33 4,-38 0,-5 -3,-22 -5,-34 -1,-5 -9,-7 -11,-2 -9,15 -22,37 -23,44 -3,-6 -13,-19 -13,-24 0,-5 4,-23 7,-33 1,-4 1,-9 -1,-13l-10 -18c-3,-6 -9,-9 -15,-6 -4,2 -6,4 -7,8 -1,0 -1,0 -1,1 -2,3 -4,8 -5,13 0,1 -1,3 -2,4l0 0c-9,-6 -19,-14 -19,-18 0,-6 9,-24 9,-32 0,-4 -2,-11 -4,-16 -1,-4 -4,-7 -8,-10 -1,-2 -3,-3 -5,-3 -1,0 -1,0 -2,0l0 0 0 0c0,0 -1,0 -1,0 -3,0 -5,1 -6,3 -4,3 -6,6 -8,10 -2,5 -4,12 -4,16 0,8 9,26 9,32 0,4 -10,12 -18,18l-1 0c-1,-1 -2,-3 -2,-4 -1,-5 -3,-10 -5,-13 0,-1 0,-1 -1,-1 -1,-4 -3,-6 -7,-8 -5,-3 -12,0 -15,6l-9 18c-2,4 -3,9 -2,13 3,10 7,28 7,33 0,5 -10,18 -13,24 -1,-7 -14,-29 -22,-44 -3,-5 -10,-3 -12,2 -2,12 -5,29 -5,34 0,5 2,25 4,38 2,9 4,17 9,24 6,10 14,25 15,29 1,1 1,4 1,6 -1,7 -9,11 -15,7l-19 -13 -11 -10c-5,-3 -11,0 -12,5l0 8c0,3 1,7 3,10l23 26c1,1 3,3 4,6 3,6 10,20 9,27 -2,5 -11,8 -18,10 -4,1 -8,-1 -11,-3l-7 -7c-4,-3 -10,0 -10,5l0 19 -5 13c-2,3 -7,4 -9,0l-8 -13c-1,-3 -4,-6 -7,-8 -6,-3 -15,-8 -15,-5 0,2 -1,8 -3,16 -3,13 1,27 10,36l15 14c9,8 16,17 23,27l17 24c3,3 0,7 -3,7 -1,0 -1,0 -2,-1 -7,-3 -14,-9 -19,-15l-5 -6c-9,-12 -27,-13 -38,-2 -1,1 -1,2 -1,2 -3,5 50,40 54,44 1,1 1,4 -1,7 -8,12 -22,19 -36,17l-11 -2 -22 -7c-6,-2 -11,3 -10,9l6 29c2,6 6,11 11,14l9 6c9,4 13,16 8,24l-1 2c-1,1 -1,2 -2,3l-15 19c-2,3 -4,5 -7,6 -2,1 -6,2 -9,2l-9 0c-4,0 -10,-5 -16,-10 -5,-5 -14,-1 -15,6l-1 12c-1,7 3,14 9,18l0 0c7,4 11,12 11,20 0,3 -1,7 -2,10 -3,5 -4,10 -3,16l3 31 7 36c2,6 4,12 8,17 8,12 23,33 25,36 0,1 0,3 -1,5 -4,7 -13,9 -20,4l-37 -23c-5,-3 -13,1 -13,7l-1 13c0,8 5,16 13,20l25 12c2,1 4,2 6,4l24 16c6,4 5,13 -2,15 -12,4 -28,9 -31,13 -5,4 -25,-2 -36,-6 -5,-2 -8,-6 -9,-11l-4 -27c-1,-6 -7,-9 -12,-5l-7 5 -23 20 0 0 -4 3 -8 7 5 -6c2,-3 4,-6 6,-10l14 -40c1,-2 2,-3 3,-5l16 -22 4 -6 -2 -8c-1,-7 -7,-10 -14,-9l-8 2c-1,1 -2,1 -3,1 -5,0 -10,-5 -10,-10 0,-5 -6,-7 -8,-3l-5 4c-2,3 -6,5 -9,5 -4,0 -9,-2 -11,-6 -4,-7 -4,-15 0,-22l15 -24c3,-6 4,-12 3,-19l-2 -11c0,-2 -3,-3 -4,-1l-4 4c-4,3 -8,7 -12,10 -2,1 -3,2 -5,3l-11 7c-1,1 -2,-1 -2,-2l8 -16 3 -5c3,-6 5,-13 6,-20l8 -39c0,-1 0,-1 0,-1 0,-3 0,-5 -1,-7 -1,-4 -3,-7 -6,-9 -3,-1 -5,-1 -5,1 0,1 -1,2 -2,3 -4,0 -9,0 -14,-1 -3,-1 -6,-4 -6,-7 0,-1 0,-2 1,-4 4,-6 4,-15 0,-22l-6 -13c-1,-3 -5,-2 -6,0 -1,3 -3,7 -4,9 -1,3 -7,8 -10,11 -1,1 -3,0 -4,-1l-4 -17c-1,-3 -1,-5 -2,-8l-1 -30c0,-3 -4,-4 -6,-1 -2,3 -3,6 -3,11l0 44c0,1 -3,4 -6,6 -6,5 -15,3 -18,-4l-3 -4 -6 -14c-2,-5 -9,-4 -10,1 -1,9 -2,18 -1,21 1,4 -2,20 -4,31 -1,4 -6,4 -8,1l-3 -5 -9 -16c-1,-2 -4,-2 -5,0 -3,4 -6,9 -6,11 0,5 7,37 9,48 2,11 17,22 17,33 0,11 -15,2 -15,2l-11 -13 -10 -14c-1,-1 -2,-1 -2,0 -4,2 -15,10 -16,19 -2,7 3,19 6,24 2,3 3,5 6,6l17 9c7,4 9,12 6,18l-5 10c-2,5 -17,-6 -17,-6l-7 0c-6,0 -10,6 -8,12 2,5 4,10 4,12 0,4 -18,4 -18,4l-8 -13c-2,-4 -6,-6 -10,-6 -1,0 -3,0 -4,0 -2,1 -4,3 -4,6 1,4 1,10 2,16l0 0c1,11 4,22 7,23 6,3 37,27 41,35 3,6 6,19 8,27 0,0 0,1 0,1 -1,1 -1,1 -1,2 -1,1 -3,2 -5,0l-18 -12c-2,-2 -5,-3 -7,-4l-13 -3c-4,-1 -8,4 -5,8 4,5 10,12 14,18 4,5 7,11 8,17 2,7 1,15 -1,22 0,0 0,0 0,0l-1 1c-1,4 -6,6 -10,3l-12 -10 -16 -17c-4,-4 -11,-2 -11,4l-1 13c-1,7 3,13 9,17l18 10c7,4 10,14 5,21 -2,4 -4,8 -4,11 -2,6 -11,10 -18,13 -4,2 -8,2 -13,0 -2,-1 -5,-2 -8,-3 -8,-3 -17,0 -22,7l0 1c-3,5 -1,11 3,14l11 7c5,4 8,12 5,18 -3,9 -6,20 -6,24 0,7 6,35 10,42 4,5 21,30 29,41 2,3 0,6 -3,6l-20 -1c-4,0 -7,-1 -10,-3 -6,-3 -16,-9 -25,-14 -8,-5 -16,-7 -24,-7 -6,0 -13,1 -18,4 -6,2 -7,8 -3,12l28 26c6,5 14,8 21,8l52 0c4,0 11,19 16,34 2,7 -5,12 -10,9l-7 -4c-9,-6 -21,-8 -31,-6l-32 6 -28 4c-3,0 -4,3 -2,5 5,4 11,10 13,13 0,0 0,1 0,1 0,6 -11,21 -11,21 -5,13 -1,27 10,36l29 23 -22 -7 -46 -3c-3,-1 -4,3 -2,5 10,7 27,19 33,22 7,4 -7,17 -13,22 -1,2 -3,2 -5,2l-32 0c-6,0 -9,5 -7,10 6,17 18,48 24,58 6,9 35,32 55,48 -33,1 -65,2 -95,3 -88,3 -161,4 -212,5 -70,0 -131,0 -184,-1 -4,0 -9,0 -13,0 -183,-2 -272,-7 -342,17 -3,1 -6,2 -9,3 -1,0 -1,0 -2,1 -3,1 -7,2 -10,4 -4,2 -8,4 -11,6 -7,3 -14,7 -21,12 -1,0 -1,0 -2,1 -2,1 -4,2 -6,3 -19,14 -34,28 -47,41 0,1 0,1 -1,1 -61,69 -56,142 -171,198 -64,32 -131,42 -199,46 -5,0 -9,0 -13,1 -21,1 -41,1 -61,2 -50,2 -85,0 -115,-3 -1,0 -2,-1 -4,-1 -52,-6 -83,-15 -136,-12 -10,1 -20,2 -31,3 -30,4 -52,9 -72,17 -1,0 -1,0 -2,0 -2,1 -3,2 -5,3 -49,19 -91,51 -209,100 -10,4 -20,8 -31,13 -33,14 -70,28 -109,42 -30,10 -62,20 -96,29 -46,12 -95,21 -146,25 -6,0 -13,1 -19,1 -135,7 -201,-28 -335,-50 -87,-14 -156,-14 -232,-6 -5,0 -9,1 -14,1 -94,12 -201,35 -366,62 -5,1 -10,2 -15,3 -1,0 -2,0 -3,0 -66,11 -170,27 -303,43 -25,3 -51,6 -78,9 -4,-4 -8,-6 -13,-7l-25 -2 -6 0c-2,-1 -4,-1 -6,-2l-17 -10 -18 -19c-1,-1 -2,-3 -2,-4 0,-2 1,-4 3,-5 11,-6 18,-18 17,-30l0 -3c0,-6 -7,-9 -12,-6l-11 9 -52 19 -29 0c-6,0 -10,-6 -8,-12l4 -10c2,-4 5,-7 9,-9l35 -14c4,-1 7,-3 10,-6l39 -26 31 -36c1,-1 1,-2 2,-3 1,-5 -2,-10 -7,-11l-2 0c-2,-1 -5,0 -7,1l-14 9 -16 10 -44 17 -38 14c-8,3 -17,-2 -18,-11l-1 -4c0,-5 2,-11 6,-15l16 -15 7 -7c4,-4 7,-8 8,-13l17 -56 3 -21 1 -8c1,-3 1,-7 0,-10 -1,-4 -3,-11 -4,-17 -2,-9 -4,-18 -4,-21 0,0 0,0 0,0 0,-4 13,-42 21,-54 2,-3 -1,-6 -3,-5l-30 12c-3,1 -7,1 -10,0l-10 -4 -7 -2c-3,-1 -5,-3 -7,-6l-9 -13c-6,-8 -6,-17 -1,-25l6 -8 15 -24c2,-3 3,-6 3,-9l0 -27c0,-6 -7,-9 -12,-5l-16 14c-5,4 -11,7 -17,8l-1 1 -15 4c-6,2 -12,-5 -9,-11l18 -39 2 -3 7 -9 0 0 6 -9 4 -5c2,-3 3,-6 2,-9l-3 -16 -2 -8c-1,-2 -4,-3 -5,-1l-6 9 -8 14 -12 20c0,0 -16,9 -27,16 -6,3 -14,1 -17,-5l0 -1c-2,-3 -1,-8 3,-11l22 -16 3 -16 2 -16 0 0 25 -17 27 -32c2,-2 3,-5 3,-8l-1 -28 -1 -15c0,-4 -5,-6 -7,-2l-9 13 -7 10 -13 14c-4,3 -9,1 -9,-4l-1 -28 -1 -16c0,-3 -3,-4 -5,-2l-10 8 -15 0c0,0 0,1 -1,1 -1,1 -3,3 -5,6 -5,5 -13,6 -19,0l0 0c-4,-4 -5,-9 -4,-14 1,-2 1,-3 2,-5l19 -25 2 -4c0,0 3,-5 7,-11 2,-3 4,-6 6,-10 1,-1 1,-2 2,-3 6,-11 6,-24 2,-36l0 0c-1,-2 -3,-3 -5,-2l-9 6 -16 9 -20 19c-3,2 -7,1 -8,-2l-2 -7c-1,-5 0,-10 4,-15l9 -12 14 -26 1 -19 1 -5 7 -32 0 -21c0,-6 -2,-12 -7,-16l-5 -7c-3,-2 -8,-1 -8,3l-1 10 -1 8c0,4 -2,7 -5,10l-15 13c-3,3 -8,2 -8,-3l-2 -14c0,0 0,-1 0,-1 -1,-1 -1,-2 0,-3l1 -28 0 -8c0,-13 -10,-25 -23,-27 -1,0 -2,0 -3,-1 -7,-1 -2,29 -2,29l-13 9 -2 -17c0,-1 0,-2 -1,-4l-10 -14c-1,-2 -2,-4 -2,-5l2 -30c0,-1 0,-2 -1,-3l-3 -9c-2,-2 -5,-2 -6,1l-1 4 -8 7c-2,1 -3,4 -3,7l3 18 1 8c1,3 -1,6 -4,7l0 0c-4,2 -7,8 -5,13l0 1c0,0 0,1 0,2 0,3 -3,6 -7,6 -3,0 -6,-2 -7,-5l-2 -6c-30,-36 -32,19 -32,33 0,2 -1,4 -2,5l-2 3c-2,2 -2,6 1,7l1 1c2,2 3,6 3,9l-3 13c-1,3 -4,4 -6,1l-5 -14 -10 -11 -1 -8c0,-3 -1,-5 -3,-6 -2,-3 -5,-3 -9,-2 -4,1 -6,4 -7,8l-3 14c-1,3 -3,5 -6,6l-5 0c-4,1 -7,5 -5,9l3 6 3 7c1,2 3,4 5,5l8 2 5 13c1,1 2,1 3,2 4,3 3,7 1,11 -1,3 -3,5 -5,7 -2,3 -2,7 0,9l17 18 1 2c16,19 18,29 15,34 -1,2 -2,3 -4,4 -3,1 -6,2 -9,2 -1,0 -2,0 -2,0 0,0 -7,-11 -14,-19 -1,-1 -1,-1 -1,-1 -5,-6 -9,-12 -11,-12 -2,-2 -13,-4 -21,-5 -1,0 -2,0 -3,0 -2,1 -4,3 -4,6l2 34c0,0 2,11 17,25 3,4 7,7 12,10 0,0 1,1 1,1 17,14 5,27 -3,33 -3,2 -7,1 -9,-2 -4,-6 -10,-18 -12,-19 -1,-1 -4,11 -6,19 0,2 -3,2 -3,0l-9 -29c0,-2 -1,-4 -3,-5 -27,-20 -11,-38 -4,-44 2,-2 3,-4 3,-7l4 -29 0 -1 11 -8c2,-2 4,-5 4,-8 1,-48 -32,-6 -32,-6 -9,1 -17,1 -23,1 -11,-2 -17,-7 -21,-14 -3,-5 -4,-10 -4,-15 0,-7 -5,-12 -12,-13l-4 0c-12,-3 -16,-9 -16,-15 0,-5 4,-11 9,-17 8,-9 20,-18 28,-24 4,-3 7,-8 7,-13l0 -21c0,-1 0,-3 1,-4l9 -15c2,-3 2,-8 0,-11l-4 -7c-2,-2 -5,-2 -6,1 -2,5 -7,13 -23,21 -4,2 -10,4 -17,6 -4,1 -8,2 -12,3 -5,2 -11,3 -17,4 -65,11 4,-67 30,-94 1,-1 1,-1 1,-1 5,-6 8,-12 7,-20l-1 -14c0,-3 -2,-5 -5,-6 -2,-1 -6,0 -8,2 -19,26 -60,75 -90,69 -27,-5 -8,-22 9,-33 9,-7 14,-17 14,-28 0,-1 0,-2 0,-2 0,-7 4,-14 10,-18l25 -13c9,-6 16,-16 16,-27l0 0c1,-9 6,-16 14,-19l3 -1c8,-3 12,-10 13,-18l2 -43c1,-6 -5,-10 -10,-9 -17,4 -23,22 -42,46 -22,28 -5,-77 -5,-77 -7,-8 -26,11 -35,21 -2,3 -6,2 -8,-1l-3 -5c-1,-2 -5,-3 -7,-1 -26,30 -31,1 -31,-10 -1,-2 0,-4 2,-6 17,-15 27,-43 30,-53 1,-2 2,-4 4,-5l13 -7c4,-2 4,-7 2,-10l-2 -2c-2,-2 -2,-5 -2,-7l2 -8 3 -16c1,-3 -2,-5 -5,-4 -4,3 -11,7 -19,11 -13,8 -30,16 -49,24 -24,11 -11,-15 5,-40 8,-14 18,-28 24,-36 2,-2 0,-6 -3,-6 -20,-2 -9,-11 -9,-11 26,-38 20,-57 17,-63 -2,-3 -2,-5 -2,-8l0 -28c0,-4 -4,-7 -8,-7 -21,3 -30,38 -30,38l-8 16c-1,2 -4,1 -5,-1 -1,-16 -9,-33 -14,-40 -2,-3 -2,-6 -1,-9 4,-10 7,-23 9,-30 0,-1 0,-1 0,-1 0,-3 -2,-5 -4,-7 -5,-5 -9,-14 -11,-19 -1,-3 -4,-5 -7,-4 -11,4 -23,23 -29,33 -1,2 -4,1 -4,-1l-1 -5 0 1604 0 92 0 273 5215 0 119 0zm4975 -831c-2,-2 -4,1 -11,2 -12,1 -17,-5 -21,-2 -4,3 -2,13 2,19 4,6 12,15 20,13 13,-3 16,-28 10,-32zm-43 -148c-1,-3 -4,-5 -8,-8 -3,-2 -8,-5 -15,-5 -1,0 -5,0 -9,2 -5,2 -8,6 -11,13 -3,4 -4,8 -6,11 -1,4 -2,6 -2,7 -3,11 -5,20 0,25 3,3 9,5 13,4 5,-2 5,-7 10,-14 8,-12 18,-11 25,-22 0,0 0,-1 1,-2 3,-6 2,-10 2,-11zm-10027 148c2,-2 4,1 12,2 11,1 17,-5 20,-2 4,3 2,13 -2,19 -4,6 -12,15 -20,13 -13,-3 -15,-28 -10,-32zm43 -148c1,-3 4,-5 8,-8 3,-2 8,-5 15,-5 2,0 5,0 9,2 5,2 8,6 12,13 2,4 4,8 5,11 1,4 2,6 2,7 3,11 5,20 0,25 -3,3 -9,5 -13,4 -5,-2 -5,-7 -9,-14 -9,-12 -19,-11 -25,-22 -1,0 -1,-1 -2,-2 -3,-6 -2,-10 -2,-11z"/>
 </g>
</svg>
